<?xml version="1.0" encoding="utf-8"?>
<!-- Generator: Adobe Illustrator 22.0.0, SVG Export Plug-In . SVG Version: 6.00 Build 0)  -->
<svg version="1.1" id="Capa_1" xmlns="http://www.w3.org/2000/svg" xmlns:xlink="http://www.w3.org/1999/xlink" x="0px" y="0px"
	 viewBox="0 0 1000 1000" style="enable-background:new 0 0 1000 1000;" xml:space="preserve">
<path d="M978.3,453.2c19.7-20,26.6-49.4,18.1-76.7c-8.5-27.3-30.7-46.8-57.9-51l-242.1-36.7c-10.3-1.6-19.2-8.3-23.8-18.1
	l-108.3-229C552.2,16,527.5,0,500,0c-27.5,0-52.1,16-64.3,41.7l-108.3,229c-4.6,9.8-13.5,16.5-23.8,18.1L61.5,325.5
	c-27.2,4.1-49.4,23.6-57.9,50.9c-8.5,27.3-1.5,56.7,18.1,76.7l175.2,178.2c7.5,7.6,10.9,18.6,9.1,29.3l-41.3,251.7
	c-4.6,28.3,6.3,56.3,28.5,73.2c22.2,16.9,51.2,19.1,75.5,5.7l216.5-118.8c9.2-5.1,20.2-5.1,29.5,0l216.6,118.8
	c10.6,5.8,22,8.7,33.4,8.7c14.8,0,29.5-4.8,42.1-14.4c22.2-16.9,33.2-44.9,28.5-73.2L794,660.7c-1.8-10.7,1.7-21.7,9.1-29.3
	L978.3,453.2z M754.5,667.8l41.3,251.7c2.1,12.7-2.6,24.8-12.6,32.3c-10,7.5-22.4,8.5-33.3,2.5L533.4,835.5
	c-10.4-5.7-21.9-8.6-33.4-8.6c-11.5,0-22.9,2.9-33.4,8.6L250.1,954.3c-11,5.9-23.4,5-33.4-2.5c-10-7.6-14.7-19.6-12.6-32.3
	l41.3-251.7c4-24.3-3.7-49.1-20.6-66.3L49.7,423.3c-8.8-9-11.8-21.7-8-33.9c3.8-12.2,13.4-20.6,25.6-22.5l242.1-36.7
	c23.4-3.5,43.6-18.8,54-40.9l108.3-229c5.4-11.5,16.1-18.4,28.4-18.4c12.3,0,22.9,6.9,28.4,18.4l108.3,229
	c10.4,22.1,30.6,37.4,54,40.9l242.1,36.7c12.2,1.9,21.7,10.3,25.6,22.5c3.8,12.2,0.8,24.9-8,33.9L775.1,601.5
	C758.2,618.7,750.5,643.5,754.5,667.8z"/>
</svg>
