<?xml version="1.0" encoding="utf-8"?>
<!-- Generator: Adobe Illustrator 22.0.0, SVG Export Plug-In . SVG Version: 6.00 Build 0)  -->
<svg version="1.1" id="Layer_1" xmlns="http://www.w3.org/2000/svg" xmlns:xlink="http://www.w3.org/1999/xlink" x="0px" y="0px"
	 viewBox="0 0 1000 1000" style="enable-background:new 0 0 1000 1000;" xml:space="preserve">
<g>
	<g>
		<path d="M954.5,0H590.9c-25.1,0-45.5,20.4-45.5,45.5s20.4,45.5,45.5,45.5h253.9L377,558.8c-17.8,17.8-17.8,46.5,0,64.3
			c8.9,8.9,20.5,13.3,32.1,13.3c11.6,0,23.3-4.4,32.1-13.3l467.9-467.9v253.9c0,25.1,20.4,45.5,45.5,45.5s45.5-20.4,45.5-45.5V45.5
			C1000,20.4,979.6,0,954.5,0z"/>
	</g>
</g>
<g>
	<g>
		<path d="M772.7,454.5c-25.1,0-45.5,20.4-45.5,45.5v409.1H90.9V272.7H500c25.1,0,45.5-20.4,45.5-45.5s-20.4-45.5-45.5-45.5H45.5
			C20.4,181.8,0,202.2,0,227.3v727.3c0,25.1,20.4,45.5,45.5,45.5h727.3c25.1,0,45.5-20.4,45.5-45.5V500
			C818.2,474.9,797.8,454.5,772.7,454.5z"/>
	</g>
</g>
</svg>
