<?xml version="1.0" encoding="utf-8"?>
<!-- Generator: Adobe Illustrator 22.0.0, SVG Export Plug-In . SVG Version: 6.00 Build 0)  -->
<svg version="1.1" id="Capa_1" xmlns="http://www.w3.org/2000/svg" xmlns:xlink="http://www.w3.org/1999/xlink" x="0px" y="0px"
	 viewBox="0 0 1000 1000" style="enable-background:new 0 0 1000 1000;" xml:space="preserve">
<path d="M984.8,910.8L738.3,663.3c63.4-72.7,98.1-164.3,98.1-259.6C836.4,181.1,648.8,0,418.2,0S0,181.1,0,403.7
	s187.6,403.7,418.2,403.7c86.6,0,169.1-25.2,239.6-73.1l248.4,249.4c10.4,10.4,24.3,16.1,39.3,16.1c14.2,0,27.6-5.2,37.8-14.7
	C1005,965.2,1005.7,931.8,984.8,910.8z M418.2,105.3c170.4,0,309.1,133.9,309.1,298.4S588.6,702.2,418.2,702.2
	S109.1,568.3,109.1,403.7S247.8,105.3,418.2,105.3z"/>
</svg>
