<?xml version="1.0" encoding="utf-8"?>
<!-- Generator: Adobe Illustrator 22.0.0, SVG Export Plug-In . SVG Version: 6.00 Build 0)  -->
<svg version="1.1" id="Layer_1" xmlns="http://www.w3.org/2000/svg" xmlns:xlink="http://www.w3.org/1999/xlink" x="0px" y="0px"
	 viewBox="0 0 1000 1000" style="enable-background:new 0 0 1000 1000;" xml:space="preserve">
<path d="M322.2,666.7L322.2,666.7c0.1,0,0.1,0,0.2,0h531.2c13.1,0,24.6-9.9,28.2-24.2l117.2-466.7c2.5-10.1,0.8-20.9-4.8-29.2
	c-5.5-8.4-14.2-13.3-23.4-13.3H254.6L233.7,26.1C230.7,10.9,218.8,0,205.1,0H29.3C13.1,0,0,14.9,0,33.3s13.1,33.3,29.3,33.3h152.3
	c3.7,19,100.2,513.2,105.8,541.6c-31.1,15.4-53,50.7-53,91.8c0,55.1,39.4,100,87.9,100h531.3c16.2,0,29.3-14.9,29.3-33.3
	c0-18.4-13.1-33.3-29.3-33.3H322.3c-16.2,0-29.3-15-29.3-33.3C293,681.6,306.1,666.7,322.2,666.7z M931.9,200L831.4,600H345.8
	l-78.1-400H931.9z"/>
<path d="M293,900c0,55.1,39.4,100,87.9,100s87.9-44.9,87.9-100c0-55.1-39.4-100-87.9-100S293,844.9,293,900z M380.9,866.7
	c16.2,0,29.3,15,29.3,33.3c0,18.4-13.1,33.3-29.3,33.3s-29.3-15-29.3-33.3C351.6,881.6,364.7,866.7,380.9,866.7z"/>
<path d="M707,900c0,55.1,39.4,100,87.9,100c48.5,0,87.9-44.9,87.9-100c0-55.1-39.4-100-87.9-100C746.5,800,707,844.9,707,900z
	 M794.9,866.7c16.2,0,29.3,15,29.3,33.3c0,18.4-13.1,33.3-29.3,33.3c-16.2,0-29.3-15-29.3-33.3C765.6,881.6,778.8,866.7,794.9,866.7
	z"/>
</svg>
