<?xml version="1.0" encoding="utf-8"?>
<!-- Generator: Adobe Illustrator 22.0.0, SVG Export Plug-In . SVG Version: 6.00 Build 0)  -->
<svg version="1.1" id="Layer_1" xmlns="http://www.w3.org/2000/svg" xmlns:xlink="http://www.w3.org/1999/xlink" x="0px" y="0px"
	 viewBox="0 0 1000 1000" style="enable-background:new 0 0 1000 1000;" xml:space="preserve">
<path d="M500,0C223.9,0,0,223.9,0,500s223.9,500,500.1,500c15.1,0,30.1-0.7,45-2c13.9-1.2,27.6-3.1,41.3-5.5l5.2-0.9
	c253.9-47.4,430-280.3,406.2-537.5C974.1,196.9,758.3,0.1,500,0z M459.9,964.9h-1.2c-13-1.1-25.8-2.9-38.6-5.1
	c-0.7-0.1-1.5-0.2-2.2-0.3c-12.5-2.2-24.8-5-37-8.2l-3-0.8c-11.9-3.2-23.7-7-35.3-11.1c-1.2-0.4-2.4-0.8-3.6-1.3
	c-11.4-4.2-22.6-8.9-33.6-13.9c-1.4-0.6-2.7-1.2-4.1-1.8c-10.8-5-21.4-10.6-31.8-16.6c-1.5-0.8-2.9-1.7-4.4-2.5
	c-10.2-6-20.2-12.4-30-19.1c-1.5-1-3-2-4.5-3.1c-9.6-6.8-19-14.1-28.2-21.7l-2.5-2.2V716.7c0.1-101.2,82.1-183.2,183.4-183.3h233.4
	c101.2,0.1,183.2,82.1,183.4,183.3v140.5l-2.2,1.8c-9.3,7.8-18.9,15.1-28.7,22.1c-1.3,0.9-2.6,1.8-3.9,2.7
	c-9.9,6.9-20.1,13.4-30.5,19.4c-1.3,0.8-2.6,1.5-3.9,2.2c-10.5,6-21.3,11.7-32.2,16.8c-1.3,0.6-2.5,1.1-3.8,1.7
	c-11.1,5.1-22.4,9.8-33.9,14c-1.1,0.4-2.3,0.8-3.3,1.2c-11.7,4.2-23.5,8-35.5,11.2l-2.9,0.7c-12.2,3.2-24.6,6-37.1,8.3
	c-0.7,0.1-1.4,0.2-2.1,0.3c-12.8,2.2-25.7,4-38.6,5.1h-1.2c-13.3,1.1-26.7,1.8-40.2,1.8C486.6,966.6,473.2,966,459.9,964.9z
	 M833.4,826.3V716.7c-0.1-119.6-97.1-216.5-216.7-216.7H383.4c-119.6,0.1-216.6,97.1-216.7,216.7v109.6
	c-179.5-183.2-177.5-477,4.5-657.7c182-180.7,475.8-180.7,657.8,0C1010.9,349.3,1012.9,643.1,833.4,826.3L833.4,826.3z"/>
<path d="M500,133.3C408,133.3,333.3,208,333.3,300S408,466.7,500,466.7S666.7,392,666.7,300C666.6,208,592.1,133.4,500,133.3z
	 M500,433.3c-73.7,0-133.4-59.7-133.4-133.3S426.4,166.7,500,166.7S633.4,226.4,633.4,300C633.3,373.6,573.6,433.3,500,433.3z"/>
</svg>
